<?xml version="1.0" encoding="utf-8"?><!DOCTYPE svg PUBLIC "-//W3C//DTD SVG 1.1//EN" "http://www.w3.org/Graphics/SVG/1.1/DTD/svg11.dtd"><svg xmlns="http://www.w3.org/2000/svg" viewBox="0 0 39 39" shape-rendering="crispEdges"><path fill="#ffffff" d="M0 0h39v39H0z"/><path stroke="#000000" d="M3 3.5h7m4 0h4m4 0h1m1 0h2m1 0h1m1 0h7M3 4.5h1m5 0h1m2 0h1m2 0h3m1 0h1m1 0h1m1 0h1m1 0h1m1 0h1m1 0h1m5 0h1M3 5.5h1m1 0h3m1 0h1m1 0h6m1 0h2m2 0h3m1 0h2m1 0h1m1 0h3m1 0h1M3 6.5h1m1 0h3m1 0h1m1 0h1m1 0h1m1 0h1m1 0h1m2 0h2m1 0h2m1 0h1m2 0h1m1 0h3m1 0h1M3 7.5h1m1 0h3m1 0h1m2 0h1m3 0h2m4 0h6m1 0h1m1 0h3m1 0h1M3 8.5h1m5 0h1m3 0h3m1 0h2m2 0h2m3 0h1m2 0h1m5 0h1M3 9.5h7m1 0h1m1 0h1m1 0h1m1 0h1m1 0h1m1 0h1m1 0h1m1 0h1m1 0h1m1 0h7M13 10.5h1m2 0h1m3 0h2m1 0h1m1 0h1m1 0h1M6 11.5h2m1 0h2m3 0h3m3 0h1m2 0h1m3 0h1m4 0h2M8 12.5h1m2 0h1m4 0h1m2 0h1m3 0h2m1 0h1m1 0h1m1 0h4M4 13.5h7m1 0h2m2 0h1m2 0h2m1 0h1m2 0h6m2 0h3M4 14.5h1m5 0h1m1 0h1m2 0h2m1 0h2m1 0h1m2 0h2m4 0h2m1 0h1m1 0h1M4 15.5h2m2 0h2m1 0h2m2 0h1m1 0h1m3 0h2m1 0h1m2 0h1m1 0h3m2 0h2M6 16.5h3m4 0h4m2 0h3m1 0h2m1 0h1m3 0h3m1 0h1M4 17.5h1m1 0h1m2 0h1m2 0h2m3 0h2m3 0h1m5 0h1m1 0h1M3 18.5h2m1 0h3m1 0h1m5 0h1m4 0h2m7 0h1m1 0h1M6 19.5h1m2 0h2m1 0h1m1 0h3m2 0h1m1 0h1m1 0h1m2 0h1m2 0h1m1 0h3M5 20.5h1m5 0h2m1 0h2m2 0h1m3 0h2m1 0h1m1 0h1m1 0h4M6 21.5h2m1 0h1m2 0h2m3 0h1m1 0h1m1 0h1m1 0h1m2 0h1m1 0h2m1 0h5M3 22.5h4m1 0h1m2 0h2m2 0h2m2 0h1m2 0h1m3 0h2m1 0h2m1 0h2M4 23.5h2m3 0h1m2 0h1m1 0h1m1 0h1m2 0h2m1 0h2m3 0h2m3 0h1m2 0h1M3 24.5h1m2 0h2m9 0h1m1 0h1m2 0h1m2 0h1m2 0h4M3 25.5h1m3 0h6m1 0h1m1 0h1m1 0h2m1 0h2m1 0h2m1 0h1m1 0h1m1 0h1m1 0h3M3 26.5h1m1 0h2m1 0h1m1 0h3m1 0h1m1 0h1m5 0h1m2 0h1m4 0h2m1 0h2M3 27.5h3m3 0h1m2 0h1m2 0h1m1 0h2m2 0h1m1 0h1m1 0h1m1 0h6m1 0h1M11 28.5h1m2 0h4m1 0h2m1 0h2m3 0h1m3 0h4M3 29.5h7m1 0h1m1 0h2m2 0h2m1 0h8m1 0h1m1 0h2M3 30.5h1m5 0h1m2 0h1m1 0h8m1 0h1m2 0h2m3 0h4M3 31.5h1m1 0h3m1 0h1m1 0h3m1 0h2m2 0h1m1 0h4m1 0h7m1 0h1M3 32.5h1m1 0h3m1 0h1m1 0h1m1 0h1m4 0h2m1 0h1m1 0h2m1 0h1m1 0h1m1 0h1m1 0h3M3 33.5h1m1 0h3m1 0h1m3 0h1m2 0h8m7 0h1m1 0h3M3 34.5h1m5 0h1m3 0h1m4 0h1m1 0h1m1 0h1m1 0h1m3 0h2m3 0h3M3 35.5h7m2 0h1m2 0h1m3 0h1m4 0h1m1 0h4m1 0h3"/></svg>
