<svg xmlns="http://www.w3.org/2000/svg" viewBox="0 0 512 512" fill="none">
  <defs>
    <filter id="softShadow" x="-20%" y="-20%" width="140%" height="140%">
      <feDropShadow dx="0" dy="10" stdDeviation="10" flood-color="#0f172a" flood-opacity="0.08" />
    </filter>
  </defs>

  <g filter="url(#softShadow)">
    <circle cx="256" cy="256" r="202" fill="#ffffff" fill-opacity="0.96" />
  </g>

  <g stroke-linecap="butt" shape-rendering="geometricPrecision">
    <path d="M 442.00 256.00 A 186 186 0 0 1 105.52 365.33" stroke="#e36363" stroke-width="118" />
    <path d="M 105.52 365.33 A 186 186 0 0 1 71.02 236.56" stroke="#8363e3" stroke-width="118" />
    <path d="M 71.02 236.56 A 186 186 0 0 1 122.20 126.79" stroke="#63e3ce" stroke-width="118" />
    <path d="M 122.20 126.79 A 186 186 0 0 1 385.21 122.20" stroke="#aee363" stroke-width="118" />
    <path d="M 385.21 122.20 A 186 186 0 0 1 442.00 256.00" stroke="#e363d3" stroke-width="118" />
  </g>

  <g opacity="0.98" stroke-linecap="butt" shape-rendering="geometricPrecision">
    <path d="M 391.00 256.00 A 135 135 0 0 1 146.78 335.35" stroke="#e36363" stroke-width="42" />
    <path d="M 146.78 335.35 A 135 135 0 0 1 121.74 241.89" stroke="#8363e3" stroke-width="42" />
    <path d="M 121.74 241.89 A 135 135 0 0 1 158.89 162.22" stroke="#63e3ce" stroke-width="42" />
    <path d="M 158.89 162.22 A 135 135 0 0 1 349.78 158.89" stroke="#aee363" stroke-width="42" />
    <path d="M 349.78 158.89 A 135 135 0 0 1 391.00 256.00" stroke="#e363d3" stroke-width="42" />
  </g>

  <circle cx="256" cy="256" r="102" fill="#f4f6f9" />
  <circle cx="256" cy="256" r="59" fill="#ffffff" fill-opacity="0.88" stroke="#e5e7eb" stroke-width="24" />

  <g stroke="#5f6677" stroke-width="8" stroke-linecap="round" stroke-linejoin="round" fill="none" opacity="0.95">
    <path d="M256 256L328 290" />
    <path d="M201 229A83 83 0 0 1 246 176" />
    <path d="M191 310A88 88 0 0 1 172 234" />
    <path d="M287 343A88 88 0 0 0 347 283" />
    <path d="M306 189A83 83 0 0 1 349 234" />
  </g>

  <g stroke="#cfd6df" stroke-width="5" stroke-linecap="round" fill="none" opacity="0.9">
    <path d="M145 332L195 303" />
    <path d="M146 182L197 211" />
    <path d="M366 151L324 203" />
    <path d="M389 272L335 276" />
    <path d="M296 370L285 319" />
  </g>

  <circle cx="256" cy="256" r="12" fill="#ffffff" />
</svg>
